<?xml version="1.0" encoding="utf-8"?>
<!-- Generator: Adobe Illustrator 19.0.0, SVG Export Plug-In . SVG Version: 6.00 Build 0)  -->
<svg version="1.1" id="Calque_1" xmlns="http://www.w3.org/2000/svg" xmlns:xlink="http://www.w3.org/1999/xlink" x="0px" y="0px"
	 viewBox="0 0 612 792" style="enable-background:new 0 0 612 792;" xml:space="preserve">
<style type="text/css">
	.st0{fill:#FEFEFE;}
	.st1{fill:#39A542;}
	.st2{fill:#AFD39F;}
	.st3{fill:#FBFCFA;}
</style>
<g>
	<path class="st0" d="M9.9,37.5C9.9,27.6,10,17.8,9.9,8c0-2.2,0.4-2.6,2.6-2.6c32,0.1,64,0.1,96,0c2.1,0,2.6,0.4,2.6,2.6
		c-0.2,8.8-0.1,17.7-0.1,26.5c-4.2,1.7-8.2,1.5-11.6-1.7c-3.6-3.4-2.6-7.6-1.3-11.7c0.3-1,0.8-1.8,1.2-2.7c0.5-1,1.7-2.1,0.8-3.1
		c-1-1.2-2.5-0.3-3.7,0.1c-4.7,1.3-8.7,4.1-13.2,5.9c-2.6,1.1-5.7,4.5-8,1.9c-2.3-2.7,2.1-4.5,3.4-6.8c0.3-0.4,0.4-0.9,0-2
		c-10.4,0.2-21,4.3-32,1.3c1.1-2.8,3.3-3.3,4.6-4.8c0.5-0.6,1.3-1.2,0.8-2.1C51.5,7.9,50.5,8,49.7,8c-1.7,0.1-3.3,0.8-4.5,1.9
		c-6.7,6.3-14.8,7.7-23.6,6.9c-0.8-0.1-1.7-0.1-2.5,0.1c-0.2,0.8,0.6,0.6,0.9,0.7c2.1,0.7,5.2,0.2,5.9,3c0.6,2.7-2.1,4-4,5.2
		c-4.7,2.9-7.5,7.5-10.6,11.7C10.8,37.8,10.4,37.8,9.9,37.5z"/>
	<path class="st1" d="M10.8,37.5c2.4-7.8,9.5-11.6,15.4-16.6c-3.6-2.7-7.9-1.3-11.5-3.8c4-2.6,8.1-1.7,11.8-1.6
		C32.9,15.8,38.3,14,43,9.8c0.7-0.7,1.6-1.2,2.4-1.7c2.9-2.1,7-2.5,8.6-0.1c1.9,2.9-2.7,4-4.4,5.9c-0.5,0.5-1.3,0.7-2.7,1.5
		c8.4,0.6,15.9-0.2,23.4-1.4c2.3-0.4,4.6-0.7,6.9-1c1.5-0.2,3.4-0.5,4.2,0.8c1,1.6-1,2.5-1.9,3.6c-1.4,1.8-3.6,3-4.6,5.3
		c1.7,1.3,2.8-0.3,4-0.8c6.3-3,12.3-6.7,19.1-8.4c1.4-0.4,3.2-1.2,4.3,0.1c1.3,1.5-0.6,2.6-1.1,3.9c-0.5,1.1-1.1,2.1-1.5,3.1
		c-3.9,9.3-0.9,13.6,9.4,13.4c0.6,0,1.3,0.3,1.9,0.5c0,0.3,0,0.7,0,1c-4.3,3.9-9.4,4.1-14.5,2.3c-4.8-1.7-6.4-6.2-6.5-10.9
		c-0.1-3.3-1.2-3.7-3.9-2.5c-4.1,1.9-8,4-11.6,6.8c-2,1.5-3.9,3.2-6.1,4.3c-1.9,1-3.9,1.4-5.7,0c-2-1.5-2-3.7-1.4-5.9
		c1.2-4.2,4.3-7.4,7.1-11.7c-12.3,1.6-23.9,2.8-34.6,7.6c-3.7,1.7-6.8,4.1-9.6,7.1c-2.1,2.4-3.5,4.5,0.5,6.6
		c2.6,1.3,1.2,2.5-0.7,3.2c-3.7,0-7.3,0-11,0C10.9,41.4,9.8,39.8,10.8,37.5z"/>
	<path class="st0" d="M23.9,42.5c0.5-1,2.1-2.3-0.5-2.4c-5.7-0.3-3.7-3.5-2.1-6c2.9-4.7,7.3-7.7,12.3-9.8
		c11.7-5.1,24.3-6.4,37.3-7.9c-1.2,3.9-4.4,5.9-6,8.9c-0.5,0.9-1.1,1.7-1.5,2.6c-1,2.4-3,5.2-0.3,7.3c2.4,1.9,4.7-0.2,6.7-1.8
		c5.7-4.7,11.8-8.7,18.8-11.1c1.4-0.5,3.2-1.9,3.3,1.4c0.3,13.7,5,16.8,18.1,12.1c0.3-0.1,0.6-0.1,1-0.2c0,7,0,7-6.9,7
		C77.3,42.5,50.6,42.5,23.9,42.5z"/>
	<path class="st2" d="M60.8,37.5c-3.9,1.4-7.5,3.3-10.8,0.8c-2.1-1.6,1.1-3.4,0.5-5.8c-5.6,2.3-10.8,5.4-16.7,6.2
		c-1.1,0.2-2.3,0.5-3.4,0.6c-1.9,0-3.9-0.3-4.8-2.1c-1-2,0.6-3.4,1.8-4.7c7.4-7.4,17-10.1,26.8-11.8c2.8-0.5,6.8-2.8,8.4-0.2
		c1.6,2.4-2.5,4.7-3.8,7.2c-0.5,0.9-1,1.7-1.5,2.6C55.3,33.9,54.6,36.9,60.8,37.5z"/>
	<path class="st3" d="M55.1,23.6c-4.2,5.6-9,7.7-14.4,8.8c-1.3,0.2-2.9,0.1-3.4-1.3c-0.6-1.6,0.8-2.4,1.9-3
		C43.8,25.5,48.6,23.3,55.1,23.6z"/>
</g>
</svg>
